<mxfile host="www.draw.io" modified="2020-03-11T05:34:27.360Z" agent="Mozilla/5.0 (Windows NT 10.0; Win64; x64) AppleWebKit/537.36 (KHTML, like Gecko) Chrome/80.0.3987.132 Safari/537.36" etag="gUe_cDh_2n5tD6N4bhnd" version="12.8.2" type="github">
  <diagram id="Da1glxK8SBpWaU4XEklG" name="Page-1">
    <mxGraphModel dx="1959" dy="668" grid="1" gridSize="10" guides="1" tooltips="1" connect="1" arrows="1" fold="1" page="1" pageScale="1" pageWidth="827" pageHeight="1169" math="0" shadow="0">
      <root>
        <mxCell id="0" />
        <mxCell id="1" parent="0" />
        <mxCell id="iIXmc26838jc1575vCe5-5" value="" style="shape=curlyBracket;whiteSpace=wrap;html=1;rounded=1;" vertex="1" parent="1">
          <mxGeometry x="40" y="270" width="20" height="120" as="geometry" />
        </mxCell>
        <mxCell id="iIXmc26838jc1575vCe5-8" value="..." style="text;html=1;strokeColor=none;fillColor=none;align=center;verticalAlign=middle;whiteSpace=wrap;rounded=0;labelBorderColor=none;labelBackgroundColor=none;fontSize=36;" vertex="1" parent="1">
          <mxGeometry x="80" y="370" width="40" height="20" as="geometry" />
        </mxCell>
        <mxCell id="iIXmc26838jc1575vCe5-9" value="..." style="text;html=1;strokeColor=none;fillColor=none;align=center;verticalAlign=middle;whiteSpace=wrap;rounded=0;labelBorderColor=none;labelBackgroundColor=none;fontSize=36;" vertex="1" parent="1">
          <mxGeometry x="-20" y="310" width="40" height="20" as="geometry" />
        </mxCell>
        <mxCell id="iIXmc26838jc1575vCe5-14" value="&lt;pre style=&quot;font-family: &amp;#34;jetbrains mono&amp;#34; ; font-size: 9.6pt&quot;&gt;&lt;span style=&quot;background-color: rgb(255 , 255 , 255)&quot;&gt;FilterHandleSetNode&lt;/span&gt;&lt;/pre&gt;" style="text;html=1;strokeColor=none;fillColor=none;align=center;verticalAlign=middle;whiteSpace=wrap;rounded=0;labelBackgroundColor=none;fontSize=36;" vertex="1" parent="1">
          <mxGeometry x="80" y="260" width="160" height="20" as="geometry" />
        </mxCell>
        <mxCell id="iIXmc26838jc1575vCe5-22" value="" style="edgeStyle=orthogonalEdgeStyle;rounded=0;orthogonalLoop=1;jettySize=auto;html=1;fontFamily=Helvetica;fontSize=12.8;" edge="1" parent="1" source="iIXmc26838jc1575vCe5-15" target="iIXmc26838jc1575vCe5-21">
          <mxGeometry relative="1" as="geometry" />
        </mxCell>
        <mxCell id="iIXmc26838jc1575vCe5-15" value="EPStatementHandleCallback" style="rounded=1;whiteSpace=wrap;labelBackgroundColor=none;fontSize=12.8;fontFamily=jetbrains mono;" vertex="1" parent="1">
          <mxGeometry x="293" y="240" width="217" height="60" as="geometry" />
        </mxCell>
        <mxCell id="iIXmc26838jc1575vCe5-20" value="" style="endArrow=classic;html=1;fontFamily=Helvetica;fontSize=12.8;" edge="1" parent="1" source="iIXmc26838jc1575vCe5-14" target="iIXmc26838jc1575vCe5-15">
          <mxGeometry width="50" height="50" relative="1" as="geometry">
            <mxPoint x="460" y="400" as="sourcePoint" />
            <mxPoint x="510" y="350" as="targetPoint" />
          </mxGeometry>
        </mxCell>
        <mxCell id="iIXmc26838jc1575vCe5-24" value="" style="edgeStyle=orthogonalEdgeStyle;rounded=0;orthogonalLoop=1;jettySize=auto;html=1;fontFamily=Helvetica;fontSize=12.8;" edge="1" parent="1" source="iIXmc26838jc1575vCe5-21" target="iIXmc26838jc1575vCe5-23">
          <mxGeometry relative="1" as="geometry" />
        </mxCell>
        <mxCell id="iIXmc26838jc1575vCe5-21" value="ZeroDepthStreamNoIterate" style="rounded=1;whiteSpace=wrap;labelBackgroundColor=none;fontSize=12.8;fontFamily=jetbrains mono;" vertex="1" parent="1">
          <mxGeometry x="560" y="240" width="217" height="60" as="geometry" />
        </mxCell>
        <mxCell id="iIXmc26838jc1575vCe5-23" value="EventRowRegexNFAViewFactory" style="rounded=1;whiteSpace=wrap;labelBackgroundColor=none;fontSize=12.8;fontFamily=jetbrains mono;" vertex="1" parent="1">
          <mxGeometry x="827" y="240" width="217" height="60" as="geometry" />
        </mxCell>
      </root>
    </mxGraphModel>
  </diagram>
</mxfile>
